<?xml version="1.0" encoding="UTF-8" standalone="no" ?>
<!DOCTYPE svg PUBLIC "-//W3C//DTD SVG 1.1//EN" "http://www.w3.org/Graphics/SVG/1.1/DTD/svg11.dtd">
<svg xmlns="http://www.w3.org/2000/svg" xmlns:xlink="http://www.w3.org/1999/xlink" version="1.1" width="2000" height="2000" viewBox="0 0 500 500" xml:space="preserve">
<desc>Created with Fabric.js 5.3.0</desc>
<defs>
</defs>
<g transform="matrix(4.2726971584 0 0 4.2726971584 39.8620276396 264.3622371271)" id="oIjoPW4-jvEx29J7f6UoV"  >
<path style="stroke: rgb(0,0,0); stroke-width: 0; stroke-dasharray: none; stroke-linecap: butt; stroke-dashoffset: 0; stroke-linejoin: miter; stroke-miterlimit: 4; fill: rgb(130,216,255); fill-rule: nonzero; opacity: 1;"  transform=" translate(0, 0)" d="M -7.26689 -54.375 L -7.26689 54.375 L 7.26689 39.92508 L 7.26689 -39.65364999999999 z" stroke-linecap="round" />
</g>
<g transform="matrix(-4.2726971582 0 0 4.2726971582 454.7666048626 262.4628238403)" id="s6he7FKfy9biA6QL1ncZ8"  >
<path style="stroke: rgb(0,0,0); stroke-width: 0; stroke-dasharray: none; stroke-linecap: butt; stroke-dashoffset: 0; stroke-linejoin: miter; stroke-miterlimit: 4; fill: rgb(130,216,255); fill-rule: nonzero; opacity: 1;"  transform=" translate(0, 0)" d="M -7.26689 -54.81748 L -7.26689 54.81748999999999 L 7.26689 40.36756999999999 L 7.26689 -40.096120000000006 z" stroke-linecap="round" />
</g>
<g transform="matrix(0 -4.2726971582 -4.2726971582 0 246.5704724912 474.6710667258)" id="ksLv4hiY8B0ibPk4ZXHH3"  >
<path style="stroke: rgb(0,0,0); stroke-width: 0; stroke-dasharray: none; stroke-linecap: butt; stroke-dashoffset: 0; stroke-linejoin: miter; stroke-miterlimit: 4; fill: rgb(130,216,255); fill-rule: nonzero; opacity: 1;"  transform=" translate(0, 0)" d="M -7.26689 -54.92351 L -7.26689 54.92351 L 7.26689 39.5357 L 7.26689 -40.564789999999995 z" stroke-linecap="round" />
</g>
<g transform="matrix(0 4.2726971582 -4.2726971582 0 246.7777392271 54.1156074961)" id="5lfujD5Q7BoXphHjDrRbC"  >
<path style="stroke: rgb(0,0,0); stroke-width: 0; stroke-dasharray: none; stroke-linecap: butt; stroke-dashoffset: 0; stroke-linejoin: miter; stroke-miterlimit: 4; fill: rgb(130,216,255); fill-rule: nonzero; opacity: 1;"  transform=" translate(0, 0)" d="M -7.26689 -54.375 L -7.26689 54.375 L 7.26689 39.58421 L 7.26689 -39.71922000000001 z" stroke-linecap="round" />
</g>
<g transform="matrix(4.9691251711 0 0 4.9691251711 125.335742816 378.9961122188)" id="Dg88CS8BjQ1h4EdWESQC8"  >
<path style="stroke: rgb(255,255,255); stroke-width: 1; stroke-dasharray: none; stroke-linecap: butt; stroke-dashoffset: 0; stroke-linejoin: miter; stroke-miterlimit: 4; fill: rgb(255,255,255); fill-opacity: 0; fill-rule: nonzero; opacity: 1;"  transform=" translate(0, 0)" d="M -7.04225 -7.88732 L 7.04226 7.8873299999999995" stroke-linecap="round" />
</g>
<g transform="matrix(4.9691251711 0 0 4.9691251711 363.293849601 155.5199558876)" id="Ew41Dw5_fX2EoUppeTa2q"  >
<path style="stroke: rgb(255,255,255); stroke-width: 1; stroke-dasharray: none; stroke-linecap: butt; stroke-dashoffset: 0; stroke-linejoin: miter; stroke-miterlimit: 4; fill: rgb(255,255,255); fill-opacity: 0; fill-rule: nonzero; opacity: 1;"  transform=" translate(0, 0)" d="M -7.04225 -7.88732 L 7.04226 7.8873299999999995" stroke-linecap="round" />
</g>
<g transform="matrix(8.4001759087 0 0 8.4001759087 242.4307520762 268.5149282505)" id="rraG5S9OiHFOpWZODrew1"  >
<path style="stroke: rgb(255,255,255); stroke-width: 0.5514; stroke-dasharray: none; stroke-linecap: butt; stroke-dashoffset: 0; stroke-linejoin: miter; stroke-miterlimit: 4; fill: rgb(255,255,255); fill-opacity: 0; fill-rule: nonzero; opacity: 1;"  transform=" translate(0, 0)" d="M -16.90141 -18.13732 L 16.90141 18.137330000000002" stroke-linecap="round" />
</g>
<g transform="matrix(4.9691251711 0 0 4.9691251711 182.7256391583 330.5471418006)" id="bYGgLBO4sk3Jo1A1Wp2BQ"  >
<path style="stroke: rgb(255,255,255); stroke-width: 1; stroke-dasharray: none; stroke-linecap: butt; stroke-dashoffset: 0; stroke-linejoin: miter; stroke-miterlimit: 4; fill: rgb(255,255,255); fill-opacity: 0; fill-rule: nonzero; opacity: 1;"  transform=" translate(0, 0)" d="M -16.90141 -18.13732 L 16.90141 18.137330000000002" stroke-linecap="round" />
</g>
<g transform="matrix(4.9691251711 0 0 4.9691251711 307.3036991292 206.4534888913)" id="lMyR_dD9MA0R5X0XI5ANW"  >
<path style="stroke: rgb(255,255,255); stroke-width: 1; stroke-dasharray: none; stroke-linecap: butt; stroke-dashoffset: 0; stroke-linejoin: miter; stroke-miterlimit: 4; fill: rgb(255,255,255); fill-opacity: 0; fill-rule: nonzero; opacity: 1;"  transform=" translate(0, 0)" d="M -16.90141 -18.13732 L 16.90141 18.137330000000002" stroke-linecap="round" />
</g>
</svg>